# File generated by ImageToStl.com - Free Image and 3D model conversion tools

o obj1
v 70 10 20
v 100 10 20
v 100 20 20
v 120 20 20
v 110 30 20
v 100 30 20
v 70 20 20
v 150 10 20
v 150 20 20
v 140 10 20
v 130 10 20
v 140 0 20
v 130 0 20
v 100 40 20
v 70 40 20
v 70 30 20
v 170 20 20
v 170 30 20
v 160 30 20
v 160 40 20
v 150 40 20
v 50 20 20
v 60 30 20
v 120 10 20
v 130 30 20
v 140 30 20
v 140 40 20
v 150 50 20
v 130 40 20
v 140 50 20
v 140 60 20
v 110 40 20
v 120 60 20
v 120 70 20
v 60 40 20
v 50 70 20
v 50 60 20
v 20 20 20
v 20 10 20
v 30 10 20
v 30 0 20
v 40 0 20
v 40 10 20
v 40 30 20
v 30 30 20
v 40 40 20
v 50 10 20
v 20 40 20
v 10 40 20
v 10 30 20
v 0 30 20
v 0 20 20
v 20 50 20
v 30 40 20
v 30 50 20
v 30 60 20
v 120 60 0
v 140 60 0
v 140 50 0
v 150 40 0
v 140 30 0
v 140 40 0
v 150 50 0
v 170 30 0
v 170 20 0
v 160 30 0
v 150 20 0
v 110 40 0
v 120 70 0
v 50 70 0
v 130 40 0
v 130 30 0
v 100 40 0
v 100 30 0
v 100 20 0
v 120 20 0
v 100 10 0
v 70 10 0
v 70 20 0
v 120 10 0
v 130 10 0
v 140 10 0
v 130 0 0
v 140 0 0
v 160 40 0
v 150 10 0
v 110 30 0
v 30 30 0
v 50 20 0
v 50 10 0
v 40 40 0
v 60 40 0
v 40 30 0
v 60 30 0
v 20 10 0
v 20 20 0
v 30 10 0
v 40 10 0
v 30 0 0
v 40 0 0
v 0 20 0
v 0 30 0
v 10 30 0
v 10 40 0
v 20 40 0
v 70 30 0
v 70 40 0
v 30 40 0
v 20 50 0
v 30 50 0
v 30 60 0
v 50 60 0
v 0 30 20
v 0 30 0
v 140 0 0
v 140 0 20
vn 0 0 1
vn 0 0 -1
vn 0 -1 0
vn 1 0 0
vn 0 -1 0
vn -1 0 0
vn 0 1 0
vn -0 1 0
vn -0 1 0
vn -1 -0 0
vn -1 -0 0
vn -1 -0 0
vn 0 -1 0
f 1//1 2//1 3//1
f 4//1 5//1 3//1
f 3//1 5//1 6//1
f 3//1 6//1 1//1
f 1//1 6//1 7//1
f 8//1 9//1 10//1
f 10//1 9//1 11//1
f 10//1 11//1 12//1
f 12//1 11//1 13//1
f 14//1 15//1 16//1
f 17//1 18//1 9//1
f 9//1 18//1 19//1
f 9//1 19//1 11//1
f 11//1 19//1 20//1
f 11//1 20//1 21//1
f 6//1 14//1 7//1
f 7//1 14//1 16//1
f 7//1 16//1 22//1
f 22//1 16//1 23//1
f 4//1 24//1 25//1
f 25//1 24//1 11//1
f 25//1 11//1 26//1
f 26//1 11//1 21//1
f 26//1 21//1 27//1
f 27//1 21//1 28//1
f 27//1 28//1 29//1
f 29//1 28//1 30//1
f 29//1 30//1 31//1
f 4//1 25//1 5//1
f 5//1 25//1 29//1
f 5//1 29//1 32//1
f 32//1 29//1 31//1
f 32//1 31//1 14//1
f 14//1 31//1 33//1
f 14//1 33//1 15//1
f 15//1 33//1 34//1
f 15//1 34//1 35//1
f 34//1 36//1 37//1
f 38//1 39//1 40//1
f 41//1 42//1 40//1
f 40//1 42//1 43//1
f 40//1 43//1 38//1
f 38//1 43//1 44//1
f 38//1 44//1 45//1
f 34//1 37//1 35//1
f 35//1 37//1 46//1
f 35//1 46//1 23//1
f 23//1 46//1 44//1
f 23//1 44//1 22//1
f 22//1 44//1 43//1
f 22//1 43//1 47//1
f 48//1 49//1 50//1
f 51//1 52//1 50//1
f 50//1 52//1 38//1
f 50//1 38//1 48//1
f 48//1 38//1 45//1
f 48//1 45//1 53//1
f 53//1 45//1 54//1
f 53//1 54//1 55//1
f 55//1 54//1 46//1
f 55//1 46//1 56//1
f 56//1 46//1 37//1
f 57//2 58//2 59//2
f 60//2 61//2 62//2
f 60//2 62//2 63//2
f 64//2 65//2 66//2
f 66//2 65//2 67//2
f 68//2 69//2 57//2
f 69//2 68//2 70//2
f 63//2 62//2 59//2
f 59//2 62//2 71//2
f 59//2 71//2 57//2
f 57//2 71//2 72//2
f 57//2 72//2 68//2
f 68//2 73//2 70//2
f 70//2 73//2 74//2
f 70//2 74//2 75//2
f 75//2 74//2 76//2
f 77//2 78//2 75//2
f 75//2 78//2 79//2
f 80//2 76//2 81//2
f 81//2 76//2 82//2
f 81//2 82//2 83//2
f 83//2 82//2 84//2
f 85//2 66//2 60//2
f 60//2 66//2 67//2
f 60//2 67//2 61//2
f 61//2 67//2 86//2
f 61//2 86//2 72//2
f 72//2 86//2 82//2
f 72//2 82//2 68//2
f 68//2 82//2 76//2
f 68//2 76//2 87//2
f 87//2 76//2 74//2
f 88//2 89//2 90//2
f 91//2 92//2 93//2
f 93//2 92//2 94//2
f 95//2 96//2 97//2
f 97//2 96//2 98//2
f 97//2 98//2 99//2
f 99//2 98//2 100//2
f 101//2 102//2 96//2
f 96//2 102//2 103//2
f 96//2 103//2 98//2
f 98//2 103//2 104//2
f 98//2 104//2 105//2
f 88//2 93//2 89//2
f 89//2 93//2 94//2
f 89//2 94//2 79//2
f 79//2 94//2 106//2
f 79//2 106//2 75//2
f 75//2 106//2 107//2
f 75//2 107//2 70//2
f 90//2 98//2 88//2
f 88//2 98//2 105//2
f 88//2 105//2 108//2
f 108//2 105//2 109//2
f 108//2 109//2 91//2
f 91//2 109//2 110//2
f 91//2 110//2 92//2
f 92//2 110//2 111//2
f 92//2 111//2 107//2
f 107//2 111//2 112//2
f 107//2 112//2 70//2
f 2//3 1//3 77//3
f 77//3 1//3 78//3
f 80//3 81//3 24//3
f 24//3 81//3 11//3
f 47//3 43//3 90//3
f 90//3 43//3 98//3
f 84//3 12//3 83//3
f 83//3 12//3 13//3
f 41//3 99//3 42//3
f 42//3 99//3 100//3
f 64//4 18//4 65//4
f 65//4 18//4 17//4
f 8//5 10//5 86//5
f 86//5 10//5 82//5
f 113//6 114//6 52//6
f 52//6 114//6 101//6
f 95//3 97//3 39//3
f 39//3 97//3 40//3
f 85//7 60//7 20//7
f 20//7 60//7 21//7
f 49//7 48//7 104//7
f 104//7 48//7 105//7
f 63//8 59//8 28//8
f 28//8 59//8 30//8
f 53//7 55//7 109//7
f 109//7 55//7 110//7
f 58//9 57//9 31//9
f 31//9 57//9 33//9
f 56//7 37//7 111//7
f 111//7 37//7 112//7
f 70//7 36//7 69//7
f 69//7 36//7 34//7
f 70//6 112//6 36//6
f 36//6 112//6 37//6
f 57//4 69//4 33//4
f 33//4 69//4 34//4
f 111//6 110//6 56//6
f 56//6 110//6 55//6
f 59//4 58//4 30//4
f 30//4 58//4 31//4
f 109//10 105//10 53//10
f 53//10 105//10 48//10
f 60//4 63//4 21//4
f 21//4 63//4 28//4
f 103//7 102//7 50//7
f 50//7 102//7 51//7
f 104//11 103//11 49//11
f 49//11 103//11 50//11
f 64//7 66//7 18//7
f 18//7 66//7 19//7
f 66//4 85//4 19//4
f 19//4 85//4 20//4
f 97//12 99//12 40//12
f 40//12 99//12 41//12
f 115//4 82//4 116//4
f 116//4 82//4 10//4
f 101//3 96//3 52//3
f 52//3 96//3 38//3
f 96//6 95//6 38//6
f 38//6 95//6 39//6
f 67//13 65//13 9//13
f 9//13 65//13 17//13
f 86//4 67//4 8//4
f 8//4 67//4 9//4
f 100//4 98//4 42//4
f 42//4 98//4 43//4
f 81//6 83//6 11//6
f 11//6 83//6 13//6
f 89//3 79//3 22//3
f 22//3 79//3 7//3
f 90//4 89//4 47//4
f 47//4 89//4 22//4
f 75//3 76//3 3//3
f 3//3 76//3 4//3
f 76//6 80//6 4//6
f 4//6 80//6 24//6
f 79//6 78//6 7//6
f 7//6 78//6 1//6
f 77//4 75//4 2//4
f 2//4 75//4 3//4
f 88//4 108//4 45//4
f 45//4 108//4 54//4
f 93//7 88//7 44//7
f 44//7 88//7 45//7
f 91//6 93//6 46//6
f 46//6 93//6 44//6
f 108//3 91//3 54//3
f 54//3 91//3 46//3
f 94//4 92//4 23//4
f 23//4 92//4 35//4
f 106//7 94//7 16//7
f 16//7 94//7 23//7
f 107//6 106//6 15//6
f 15//6 106//6 16//6
f 92//3 107//3 35//3
f 35//3 107//3 15//3
f 74//4 73//4 6//4
f 6//4 73//4 14//4
f 87//7 74//7 5//7
f 5//7 74//7 6//7
f 68//6 87//6 32//6
f 32//6 87//6 5//6
f 73//3 68//3 14//3
f 14//3 68//3 32//3
f 72//4 71//4 25//4
f 25//4 71//4 29//4
f 61//7 72//7 26//7
f 26//7 72//7 25//7
f 62//6 61//6 27//6
f 27//6 61//6 26//6
f 71//3 62//3 29//3
f 29//3 62//3 27//3
# Vertices: 116, normals: 13, texture coordinates: 0, faces: 236

