# Blender 4.5.1 LTS
# www.blender.org
mtllib ufo.mtl
o obj1
v -0.300000 -0.500000 0.200000
v 0.300000 -0.500000 0.200000
v 0.300000 -0.300000 0.200000
v 0.700000 -0.300000 0.200000
v 0.500000 -0.100000 0.200000
v 0.300000 -0.100000 0.200000
v -0.300000 -0.300000 0.200000
v 1.300000 -0.500000 0.200000
v 1.300000 -0.300000 0.200000
v 1.100000 -0.500000 0.200000
v 0.900000 -0.500000 0.200000
v 1.100000 -0.700000 0.200000
v 0.900000 -0.700000 0.200000
v 0.300000 0.100000 0.200000
v -0.300000 0.100000 0.200000
v -0.300000 -0.100000 0.200000
v 1.700000 -0.300000 0.200000
v 1.700000 -0.100000 0.200000
v 1.500000 -0.100000 0.200000
v 1.500000 0.100000 0.200000
v 1.300000 0.100000 0.200000
v -0.700000 -0.300000 0.200000
v -0.500000 -0.100000 0.200000
v 0.700000 -0.500000 0.200000
v 0.900000 -0.100000 0.200000
v 1.100000 -0.100000 0.200000
v 1.100000 0.100000 0.200000
v 1.300000 0.300000 0.200000
v 0.900000 0.100000 0.200000
v 1.100000 0.300000 0.200000
v 1.100000 0.500000 0.200000
v 0.500000 0.100000 0.200000
v 0.700000 0.500000 0.200000
v 0.700000 0.700000 0.200000
v -0.500000 0.100000 0.200000
v -0.700000 0.700000 0.200000
v -0.700000 0.500000 0.200000
v -1.300000 -0.300000 0.200000
v -1.300000 -0.500000 0.200000
v -1.100000 -0.500000 0.200000
v -1.100000 -0.700000 0.200000
v -0.900000 -0.700000 0.200000
v -0.900000 -0.500000 0.200000
v -0.900000 -0.100000 0.200000
v -1.100000 -0.100000 0.200000
v -0.900000 0.100000 0.200000
v -0.700000 -0.500000 0.200000
v -1.300000 0.100000 0.200000
v -1.500000 0.100000 0.200000
v -1.500000 -0.100000 0.200000
v -1.700000 -0.100000 0.200000
v -1.700000 -0.300000 0.200000
v -1.300000 0.300000 0.200000
v -1.100000 0.100000 0.200000
v -1.100000 0.300000 0.200000
v -1.100000 0.500000 0.200000
v 0.700000 0.500000 -0.200000
v 1.100000 0.500000 -0.200000
v 1.100000 0.300000 -0.200000
v 1.300000 0.100000 -0.200000
v 1.100000 -0.100000 -0.200000
v 1.100000 0.100000 -0.200000
v 1.300000 0.300000 -0.200000
v 1.700000 -0.100000 -0.200000
v 1.700000 -0.300000 -0.200000
v 1.500000 -0.100000 -0.200000
v 1.300000 -0.300000 -0.200000
v 0.500000 0.100000 -0.200000
v 0.700000 0.700000 -0.200000
v -0.700000 0.700000 -0.200000
v 0.900000 0.100000 -0.200000
v 0.900000 -0.100000 -0.200000
v 0.300000 0.100000 -0.200000
v 0.300000 -0.100000 -0.200000
v 0.300000 -0.300000 -0.200000
v 0.700000 -0.300000 -0.200000
v 0.300000 -0.500000 -0.200000
v -0.300000 -0.500000 -0.200000
v -0.300000 -0.300000 -0.200000
v 0.700000 -0.500000 -0.200000
v 0.900000 -0.500000 -0.200000
v 1.100000 -0.500000 -0.200000
v 0.900000 -0.700000 -0.200000
v 1.100000 -0.700000 -0.200000
v 1.500000 0.100000 -0.200000
v 1.300000 -0.500000 -0.200000
v 0.500000 -0.100000 -0.200000
v -1.100000 -0.100000 -0.200000
v -0.700000 -0.300000 -0.200000
v -0.700000 -0.500000 -0.200000
v -0.900000 0.100000 -0.200000
v -0.500000 0.100000 -0.200000
v -0.900000 -0.100000 -0.200000
v -0.500000 -0.100000 -0.200000
v -1.300000 -0.500000 -0.200000
v -1.300000 -0.300000 -0.200000
v -1.100000 -0.500000 -0.200000
v -0.900000 -0.500000 -0.200000
v -1.100000 -0.700000 -0.200000
v -0.900000 -0.700000 -0.200000
v -1.700000 -0.300000 -0.200000
v -1.700000 -0.100000 -0.200000
v -1.500000 -0.100000 -0.200000
v -1.500000 0.100000 -0.200000
v -1.300000 0.100000 -0.200000
v -0.300000 -0.100000 -0.200000
v -0.300000 0.100000 -0.200000
v -1.100000 0.100000 -0.200000
v -1.300000 0.300000 -0.200000
v -1.100000 0.300000 -0.200000
v -1.100000 0.500000 -0.200000
v -0.700000 0.500000 -0.200000
v -1.700000 -0.100000 0.200000
v -1.700000 -0.100000 -0.200000
v 1.100000 -0.700000 -0.200000
v 1.100000 -0.700000 0.200000
vn -0.0000 -0.0000 1.0000
vn -0.0000 -0.0000 -1.0000
vn -0.0000 -1.0000 -0.0000
vn 1.0000 -0.0000 -0.0000
vn -1.0000 -0.0000 -0.0000
vn -0.0000 1.0000 -0.0000
s 1
f 1//1 2//1 3//1
f 4//1 5//1 3//1
f 3//1 5//1 6//1
f 3//1 6//1 1//1
f 1//1 6//1 7//1
f 8//1 9//1 10//1
f 10//1 9//1 11//1
f 10//1 11//1 12//1
f 12//1 11//1 13//1
f 14//1 15//1 16//1
f 17//1 18//1 9//1
f 9//1 18//1 19//1
f 9//1 19//1 11//1
f 11//1 19//1 20//1
f 11//1 20//1 21//1
f 6//1 14//1 7//1
f 7//1 14//1 16//1
f 7//1 16//1 22//1
f 22//1 16//1 23//1
f 4//1 24//1 25//1
f 25//1 24//1 11//1
f 25//1 11//1 26//1
f 26//1 11//1 21//1
f 26//1 21//1 27//1
f 27//1 21//1 28//1
f 27//1 28//1 29//1
f 29//1 28//1 30//1
f 29//1 30//1 31//1
f 4//1 25//1 5//1
f 5//1 25//1 29//1
f 5//1 29//1 32//1
f 32//1 29//1 31//1
f 32//1 31//1 14//1
f 14//1 31//1 33//1
f 14//1 33//1 15//1
f 15//1 33//1 34//1
f 15//1 34//1 35//1
f 34//1 36//1 37//1
f 38//1 39//1 40//1
f 41//1 42//1 40//1
f 40//1 42//1 43//1
f 40//1 43//1 38//1
f 38//1 43//1 44//1
f 38//1 44//1 45//1
f 34//1 37//1 35//1
f 35//1 37//1 46//1
f 35//1 46//1 23//1
f 23//1 46//1 44//1
f 23//1 44//1 22//1
f 22//1 44//1 43//1
f 22//1 43//1 47//1
f 48//1 49//1 50//1
f 51//1 52//1 50//1
f 50//1 52//1 38//1
f 50//1 38//1 48//1
f 48//1 38//1 45//1
f 48//1 45//1 53//1
f 53//1 45//1 54//1
f 53//1 54//1 55//1
f 55//1 54//1 46//1
f 55//1 46//1 56//1
f 56//1 46//1 37//1
f 57//2 58//2 59//2
f 60//2 61//2 62//2
f 60//2 62//2 63//2
f 64//2 65//2 66//2
f 66//2 65//2 67//2
f 68//2 69//2 57//2
f 69//2 68//2 70//2
f 63//2 62//2 59//2
f 59//2 62//2 71//2
f 59//2 71//2 57//2
f 57//2 71//2 72//2
f 57//2 72//2 68//2
f 68//2 73//2 70//2
f 70//2 73//2 74//2
f 70//2 74//2 75//2
f 75//2 74//2 76//2
f 77//2 78//2 75//2
f 75//2 78//2 79//2
f 80//2 76//2 81//2
f 81//2 76//2 82//2
f 81//2 82//2 83//2
f 83//2 82//2 84//2
f 85//2 66//2 60//2
f 60//2 66//2 67//2
f 60//2 67//2 61//2
f 61//2 67//2 86//2
f 61//2 86//2 72//2
f 72//2 86//2 82//2
f 72//2 82//2 68//2
f 68//2 82//2 76//2
f 68//2 76//2 87//2
f 87//2 76//2 74//2
f 88//2 89//2 90//2
f 91//2 92//2 93//2
f 93//2 92//2 94//2
f 95//2 96//2 97//2
f 97//2 96//2 98//2
f 97//2 98//2 99//2
f 99//2 98//2 100//2
f 101//2 102//2 96//2
f 96//2 102//2 103//2
f 96//2 103//2 98//2
f 98//2 103//2 104//2
f 98//2 104//2 105//2
f 88//2 93//2 89//2
f 89//2 93//2 94//2
f 89//2 94//2 79//2
f 79//2 94//2 106//2
f 79//2 106//2 75//2
f 75//2 106//2 107//2
f 75//2 107//2 70//2
f 90//2 98//2 88//2
f 88//2 98//2 105//2
f 88//2 105//2 108//2
f 108//2 105//2 109//2
f 108//2 109//2 91//2
f 91//2 109//2 110//2
f 91//2 110//2 92//2
f 92//2 110//2 111//2
f 92//2 111//2 107//2
f 107//2 111//2 112//2
f 107//2 112//2 70//2
f 2//3 1//3 77//3
f 77//3 1//3 78//3
f 80//3 81//3 24//3
f 24//3 81//3 11//3
f 47//3 43//3 90//3
f 90//3 43//3 98//3
f 84//3 12//3 83//3
f 83//3 12//3 13//3
f 41//3 99//3 42//3
f 42//3 99//3 100//3
f 64//4 18//4 65//4
f 65//4 18//4 17//4
f 8//3 10//3 86//3
f 86//3 10//3 82//3
f 113//5 114//5 52//5
f 52//5 114//5 101//5
f 95//3 97//3 39//3
f 39//3 97//3 40//3
f 85//6 60//6 20//6
f 20//6 60//6 21//6
f 49//6 48//6 104//6
f 104//6 48//6 105//6
f 63//6 59//6 28//6
f 28//6 59//6 30//6
f 53//6 55//6 109//6
f 109//6 55//6 110//6
f 58//6 57//6 31//6
f 31//6 57//6 33//6
f 56//6 37//6 111//6
f 111//6 37//6 112//6
f 70//6 36//6 69//6
f 69//6 36//6 34//6
f 70//5 112//5 36//5
f 36//5 112//5 37//5
f 57//4 69//4 33//4
f 33//4 69//4 34//4
f 111//5 110//5 56//5
f 56//5 110//5 55//5
f 59//4 58//4 30//4
f 30//4 58//4 31//4
f 109//5 105//5 53//5
f 53//5 105//5 48//5
f 60//4 63//4 21//4
f 21//4 63//4 28//4
f 103//6 102//6 50//6
f 50//6 102//6 51//6
f 104//5 103//5 49//5
f 49//5 103//5 50//5
f 64//6 66//6 18//6
f 18//6 66//6 19//6
f 66//4 85//4 19//4
f 19//4 85//4 20//4
f 97//5 99//5 40//5
f 40//5 99//5 41//5
f 115//4 82//4 116//4
f 116//4 82//4 10//4
f 101//3 96//3 52//3
f 52//3 96//3 38//3
f 96//5 95//5 38//5
f 38//5 95//5 39//5
f 67//3 65//3 9//3
f 9//3 65//3 17//3
f 86//4 67//4 8//4
f 8//4 67//4 9//4
f 100//4 98//4 42//4
f 42//4 98//4 43//4
f 81//5 83//5 11//5
f 11//5 83//5 13//5
f 89//3 79//3 22//3
f 22//3 79//3 7//3
f 90//4 89//4 47//4
f 47//4 89//4 22//4
f 75//3 76//3 3//3
f 3//3 76//3 4//3
f 76//5 80//5 4//5
f 4//5 80//5 24//5
f 79//5 78//5 7//5
f 7//5 78//5 1//5
f 77//4 75//4 2//4
f 2//4 75//4 3//4
f 88//4 108//4 45//4
f 45//4 108//4 54//4
f 93//6 88//6 44//6
f 44//6 88//6 45//6
f 91//5 93//5 46//5
f 46//5 93//5 44//5
f 108//3 91//3 54//3
f 54//3 91//3 46//3
f 94//4 92//4 23//4
f 23//4 92//4 35//4
f 106//6 94//6 16//6
f 16//6 94//6 23//6
f 107//5 106//5 15//5
f 15//5 106//5 16//5
f 92//3 107//3 35//3
f 35//3 107//3 15//3
f 74//4 73//4 6//4
f 6//4 73//4 14//4
f 87//6 74//6 5//6
f 5//6 74//6 6//6
f 68//5 87//5 32//5
f 32//5 87//5 5//5
f 73//3 68//3 14//3
f 14//3 68//3 32//3
f 72//4 71//4 25//4
f 25//4 71//4 29//4
f 61//6 72//6 26//6
f 26//6 72//6 25//6
f 62//5 61//5 27//5
f 27//5 61//5 26//5
f 71//3 62//3 29//3
f 29//3 62//3 27//3
